<svg xmlns="http://www.w3.org/2000/svg" width="750.28" height="826.68" viewBox="0 0 750.28 826.68"><defs><style>.cls-1,.cls-3{fill:none;}.cls-1{stroke:#fff;stroke-width:2px;}.cls-2{fill:#c4c4c4;}.cls-3{stroke:#3e5462;}.cls-4{fill:#fff;}</style></defs><g id="Layer_2" data-name="Layer 2"><g id="Layer_1-2" data-name="Layer 1"><path class="cls-1" d="M104,59.07a13.36,13.36,0,0,1,13.39-13.39H624.11a37.42,37.42,0,0,1,37.38,37.38V786.85a37.35,37.35,0,0,1-37.38,37.38H117.39A13.36,13.36,0,0,1,104,810.84Z"></path><path class="cls-2" d="M376.64,333.47H355.27a9.5,9.5,0,0,1,0-19h16a2.38,2.38,0,0,0,0-4.75h-19a3.56,3.56,0,0,1,0-7.12H370.7a9.5,9.5,0,1,1,0,19H355.27c-1.78-.59-3,.6-3,2.38a2.54,2.54,0,0,0,2.37,2.37h22a3.83,3.83,0,0,1,3.56,3.56A3.42,3.42,0,0,1,376.64,333.47ZM344,305.58a3.83,3.83,0,0,0-3.56-3.56H326.79a2.38,2.38,0,1,1,0-4.75H370.7a9.5,9.5,0,1,0,0-19h-5.93a3.56,3.56,0,0,0,0,7.12h5.93a2.38,2.38,0,1,1,0,4.75H326.79a9.5,9.5,0,1,0,0,19h13.65A3.83,3.83,0,0,0,344,305.58Zm36.2-92a9.38,9.38,0,0,0-9.5-9.5H355.27a2.7,2.7,0,0,1-3-2.37,2.54,2.54,0,0,1,2.37-2.37h22a3.57,3.57,0,0,0,0-7.13H355.27c-5.34,0-10.09,4.16-10.09,9.5a9.38,9.38,0,0,0,9.5,9.5h16a2.37,2.37,0,1,1,0,4.74H352.31c-1.78.6-3.56,1.78-3.56,4.16a3.83,3.83,0,0,0,3.56,3.56H370.7C376.05,223.68,380.2,218.93,380.2,213.59Zm0,24.93a9.38,9.38,0,0,0-9.5-9.5h-5.93a3.56,3.56,0,0,0,0,7.12h5.93a2.38,2.38,0,1,1,0,4.75h-32a3.56,3.56,0,0,0,0,7.12H371.3C376.05,248,380.2,243.86,380.2,238.52ZM355.87,232a3.83,3.83,0,0,0-3.56-3.56H326.79a2.38,2.38,0,1,1,0-4.75h13.65a3.56,3.56,0,1,0,0-7.12H326.79a9.5,9.5,0,1,0,0,19h25.52Q355.87,235.55,355.87,232Zm-17.21,24.33a3.83,3.83,0,0,0-3.56-3.56H316.7a2.38,2.38,0,1,1,0-4.75h9.49a3.56,3.56,0,1,0,0-7.12H316.7a9.5,9.5,0,1,0,0,19h18.4Q338.66,259.88,338.66,256.32Zm41.54,6.53a9.38,9.38,0,0,0-9.5-9.5H347.56a3.57,3.57,0,0,0,0,7.13H370.7a2.37,2.37,0,1,1,0,4.74H335.1a3.57,3.57,0,0,0,0,7.13h35.6A9.38,9.38,0,0,0,380.2,262.85Zm-24.33,18.4a3.83,3.83,0,0,0-3.56-3.56H316.7a2.38,2.38,0,1,1,0-4.75h5.93a3.56,3.56,0,0,0,0-7.12H316.7a9.5,9.5,0,1,0,0,19h35.61A3.42,3.42,0,0,0,355.87,281.25ZM420.56,324a9.38,9.38,0,0,0-9.5-9.5H395a2.38,2.38,0,1,1,0-4.75h18.4a3.56,3.56,0,0,0,0-7.12H395a9.5,9.5,0,1,0,0,19h16a2.38,2.38,0,1,1,0,4.75h-22a3.56,3.56,0,0,0,0,7.12h22A9.37,9.37,0,0,0,420.56,324Zm28.49-24.93a9.37,9.37,0,0,0-9.5-9.49H395.63a2.38,2.38,0,0,1,0-4.75h5.94a3.56,3.56,0,1,0,0-7.12h-5.94a9.5,9.5,0,0,0,0,19h43.92a2.38,2.38,0,0,1,0,4.75H425.9a3.56,3.56,0,0,0,0,7.12h13.65C444.89,309.14,449.05,304.39,449.05,299.05ZM417,220.12a3.83,3.83,0,0,0-3.56-3.56H395a2.38,2.38,0,1,1,0-4.75h16a9.5,9.5,0,1,0,0-19h-22a3.56,3.56,0,0,0,0,7.12h22a2.38,2.38,0,1,1,0,4.75H395a9.5,9.5,0,1,0,0,19h18.4A3.83,3.83,0,0,0,417,220.12Zm14.24,24.33a3.83,3.83,0,0,0-3.56-3.56H395a2.38,2.38,0,1,1,0-4.75H401a3.56,3.56,0,0,0,0-7.12H395a9.5,9.5,0,1,0,0,19h32.64A3.83,3.83,0,0,0,431.24,244.45Zm17.81-18.4a9.37,9.37,0,0,0-9.5-9.49H425.9a3.56,3.56,0,0,0,0,7.12h13.65a2.38,2.38,0,0,1,0,4.75H414a3.56,3.56,0,1,0,0,7.12h25.52A9.38,9.38,0,0,0,449.05,226.05Zm9.49,24.34a9.37,9.37,0,0,0-9.49-9.5h-9.5a3.56,3.56,0,0,0,0,7.12h9.5a2.38,2.38,0,0,1,0,4.75h-18.4a3.56,3.56,0,0,0,0,7.12h18.4A9.37,9.37,0,0,0,458.54,250.39Zm-24.33,18.39a3.83,3.83,0,0,0-3.56-3.56H395a2.37,2.37,0,1,1,0-4.74h23.14a3.57,3.57,0,0,0,0-7.13H395a9.5,9.5,0,1,0,0,19h35.61A3.43,3.43,0,0,0,434.21,268.78Zm24.33,5.94a9.37,9.37,0,0,0-9.49-9.5h-5.94a3.57,3.57,0,0,0,0,7.13h5.94a2.37,2.37,0,0,1,0,4.74H413.44a3.56,3.56,0,1,0,0,7.12h35.61C454.39,284.81,458.54,280.06,458.54,274.72Z"></path><path class="cls-3" d="M718,44.68v364.5"></path><path class="cls-4" d="M685.61,443.18v-1.69c.81-.78,1.48-1.44,2-2s1-1,1.41-1.52a24.07,24.07,0,0,0,1.49-1.94,6.27,6.27,0,0,0,.79-1.4,3.51,3.51,0,0,0,.24-1.25,2,2,0,0,0-.58-1.51,2.14,2.14,0,0,0-1.58-.57,3.8,3.8,0,0,0-1.75.43,4.43,4.43,0,0,0-1.49,1.19l-.4-1.88a5,5,0,0,1,1.75-1.17,6,6,0,0,1,2.19-.41,4.22,4.22,0,0,1,3,1,3.38,3.38,0,0,1,1.09,2.64,5.53,5.53,0,0,1-.68,2.58,14.75,14.75,0,0,1-2.23,3c-.39.42-.8.85-1.24,1.3s-.84.84-1.23,1.2h5.76v1.91Zm15.46.29a4.09,4.09,0,0,1-2.59-.85,5.33,5.33,0,0,1-1.66-2.41,10.92,10.92,0,0,1-.57-3.73c0-.49,0-1,0-1.38a11.28,11.28,0,0,1,.2-1.23,6.06,6.06,0,0,1,1.64-3.22,4.34,4.34,0,0,1,5.52-.3,5.28,5.28,0,0,1,1.66,2.41,10.76,10.76,0,0,1,.58,3.72c0,.48,0,.95-.06,1.39a7.58,7.58,0,0,1-.2,1.22,6.08,6.08,0,0,1-1.62,3.23A4.09,4.09,0,0,1,701.07,443.47Zm0-1.89c1.18,0,1.95-.83,2.32-2.49a6.26,6.26,0,0,0,.18-1.17,12.74,12.74,0,0,0,.08-1.44,8.58,8.58,0,0,0-.67-3.78,2.09,2.09,0,0,0-1.91-1.31c-1.16,0-1.94.83-2.32,2.48a8.87,8.87,0,0,0-.2,1.17c0,.44,0,.92,0,1.44a8.67,8.67,0,0,0,.66,3.8A2.08,2.08,0,0,0,701.07,441.58Zm10.39,1.89a8.58,8.58,0,0,1-2-.24,4.78,4.78,0,0,1-1.56-.61l.18-1.83a6.71,6.71,0,0,0,1.58.64,6.32,6.32,0,0,0,1.69.24,3.36,3.36,0,0,0,2.24-.7,2.5,2.5,0,0,0,.81-1.93,2.21,2.21,0,0,0-.89-1.85,3.72,3.72,0,0,0-2.39-.69,11.4,11.4,0,0,0-1.33.09,9.55,9.55,0,0,0-1.32.24l.26-7h7v1.87h-5.11l-.13,3.26a7.31,7.31,0,0,1,1.3-.13,5.84,5.84,0,0,1,2.54.52,3.74,3.74,0,0,1,1.65,1.46,4.06,4.06,0,0,1,.6,2.23,4.36,4.36,0,0,1-.63,2.36,4.25,4.25,0,0,1-1.77,1.55A6,6,0,0,1,711.46,443.47Zm7.81-.29v-9.09h2l0,1.4a2.6,2.6,0,0,1,1.12-1.24,3.27,3.27,0,0,1,1.72-.45,2.81,2.81,0,0,1,2.86,1.86,3,3,0,0,1,1.19-1.35,3.42,3.42,0,0,1,1.86-.51,3,3,0,0,1,2.44,1,4.2,4.2,0,0,1,.87,2.86v5.51h-2.07v-5.13c0-1.61-.62-2.41-1.86-2.41a1.9,1.9,0,0,0-1.54.68,3,3,0,0,0-.54,1.91v4.95h-2.07v-5.13c0-1.61-.61-2.41-1.84-2.41a1.92,1.92,0,0,0-1.55.68,3,3,0,0,0-.54,1.89v5Zm16.93,0v-9.09h2l0,1.4a2.63,2.63,0,0,1,1.11-1.24,3.33,3.33,0,0,1,1.73-.45,2.81,2.81,0,0,1,2.86,1.86,2.94,2.94,0,0,1,1.19-1.35,3.42,3.42,0,0,1,1.86-.51,3,3,0,0,1,2.44,1,4.2,4.2,0,0,1,.87,2.86v5.51h-2.07v-5.13c0-1.61-.62-2.41-1.86-2.41a1.92,1.92,0,0,0-1.55.68,3.08,3.08,0,0,0-.53,1.91v4.95H742.2v-5.13c0-1.61-.62-2.41-1.84-2.41a1.9,1.9,0,0,0-1.55.68,3,3,0,0,0-.54,1.89v5Z"></path><path class="cls-3" d="M718,462.18v364.5"></path><path class="cls-3" d="M103,6.18H334.74"></path><path class="cls-4" d="M354.4,13.68V2.48l-3.56,1.61-.33-1.86L354.85.29h1.66V13.68Zm12.59,0v-3.2h-6.07V8.78L366.86.29H369V8.75h1.74v1.73H369v3.2Zm-4.13-4.93H367V2.9ZM376.2,14a8.5,8.5,0,0,1-2-.24,4.94,4.94,0,0,1-1.57-.61l.18-1.83a6.61,6.61,0,0,0,1.59.64,6.27,6.27,0,0,0,1.69.24,3.33,3.33,0,0,0,2.23-.7,2.46,2.46,0,0,0,.81-1.93,2.2,2.2,0,0,0-.88-1.85,3.77,3.77,0,0,0-2.4-.69,11.54,11.54,0,0,0-1.33.09,9.39,9.39,0,0,0-1.31.24l.25-7h7V2.16H375.3l-.12,3.26a7.2,7.2,0,0,1,1.29-.13,5.81,5.81,0,0,1,2.54.52,3.82,3.82,0,0,1,1.66,1.46,4.14,4.14,0,0,1,.59,2.23,4.36,4.36,0,0,1-.63,2.36,4.29,4.29,0,0,1-1.76,1.55A6,6,0,0,1,376.2,14Zm7.82-.29V4.59h2L386,6a2.58,2.58,0,0,1,1.11-1.24,3.31,3.31,0,0,1,1.73-.45,2.82,2.82,0,0,1,2.86,1.86,2.94,2.94,0,0,1,1.19-1.35,3.41,3.41,0,0,1,1.85-.51,3,3,0,0,1,2.45,1,4.2,4.2,0,0,1,.87,2.86v5.51H396V8.55c0-1.61-.61-2.41-1.85-2.41a1.9,1.9,0,0,0-1.55.68,3,3,0,0,0-.54,1.91v4.95H390V8.55c0-1.61-.61-2.41-1.83-2.41a1.9,1.9,0,0,0-1.55.68,3,3,0,0,0-.54,1.89v5Zm16.93,0V4.59h2L403,6a2.6,2.6,0,0,1,1.12-1.24,3.31,3.31,0,0,1,1.73-.45,2.83,2.83,0,0,1,2.86,1.86,2.94,2.94,0,0,1,1.19-1.35,3.38,3.38,0,0,1,1.85-.51,3,3,0,0,1,2.45,1A4.25,4.25,0,0,1,415,8.17v5.51H413V8.55c0-1.61-.62-2.41-1.85-2.41a1.9,1.9,0,0,0-1.55.68A3,3,0,0,0,409,8.73v4.95h-2.07V8.55c0-1.61-.61-2.41-1.84-2.41a1.88,1.88,0,0,0-1.54.68A3,3,0,0,0,403,8.71v5Z"></path><path class="cls-3" d="M430.74,6.18H662.49"></path><rect class="cls-1" x="1" y="45.68" width="71" height="778.55" rx="7"></rect><path class="cls-4" d="M13.74,13.68V2.48L10.17,4.09,9.85,2.23,14.19.29h1.65V13.68ZM25.15,14a4.09,4.09,0,0,1-2.59-.85,5.33,5.33,0,0,1-1.66-2.41A10.92,10.92,0,0,1,20.33,7c0-.49,0-1,.05-1.38s.12-.84.2-1.23a6.13,6.13,0,0,1,1.64-3.22,4.34,4.34,0,0,1,5.52-.3A5.21,5.21,0,0,1,29.4,3.26,10.76,10.76,0,0,1,30,7c0,.48,0,.95-.06,1.39a6.61,6.61,0,0,1-.2,1.22,6,6,0,0,1-1.62,3.23A4.09,4.09,0,0,1,25.15,14Zm0-1.89c1.18,0,2-.83,2.32-2.49a6.26,6.26,0,0,0,.18-1.17A12.74,12.74,0,0,0,27.73,7a8.58,8.58,0,0,0-.67-3.78,2.08,2.08,0,0,0-1.91-1.31c-1.16,0-1.94.83-2.32,2.48a10.89,10.89,0,0,0-.2,1.17c0,.44-.05.92-.05,1.44a8.67,8.67,0,0,0,.66,3.8A2.08,2.08,0,0,0,25.15,12.08Zm7,1.6V4.59h2l0,1.4a2.63,2.63,0,0,1,1.11-1.24,3.33,3.33,0,0,1,1.73-.45,2.81,2.81,0,0,1,2.86,1.86A3,3,0,0,1,41.1,4.81,3.42,3.42,0,0,1,43,4.3a3,3,0,0,1,2.44,1,4.2,4.2,0,0,1,.87,2.86v5.51H44.2V8.55c0-1.61-.62-2.41-1.86-2.41a1.88,1.88,0,0,0-1.54.68,3,3,0,0,0-.54,1.91v4.95H38.19V8.55c0-1.61-.62-2.41-1.84-2.41a1.9,1.9,0,0,0-1.55.68,3,3,0,0,0-.54,1.89v5Zm16.93,0V4.59h2l0,1.4a2.63,2.63,0,0,1,1.11-1.24A3.33,3.33,0,0,1,54,4.3a2.82,2.82,0,0,1,2.86,1.86A2.94,2.94,0,0,1,58,4.81a3.41,3.41,0,0,1,1.85-.51,3,3,0,0,1,2.45,1,4.2,4.2,0,0,1,.87,2.86v5.51H61.13V8.55c0-1.61-.62-2.41-1.86-2.41a1.92,1.92,0,0,0-1.55.68,3,3,0,0,0-.54,1.91v4.95H55.11V8.55c0-1.61-.61-2.41-1.83-2.41a1.9,1.9,0,0,0-1.55.68,3,3,0,0,0-.54,1.89v5Z"></path></g></g></svg>